HIERARCHY
ROOT Hips
{
	OFFSET 0.00000 0.00000 0.00000
	CHANNELS 6 Xposition Yposition Zposition Zrotation Yrotation Xrotation 
	JOINT LHipJoint
	{
		OFFSET 0 0 0
		CHANNELS 3 Zrotation Yrotation Xrotation
		JOINT LeftUpLeg
		{
			OFFSET 1.53139 -1.83434 0.76626
			CHANNELS 3 Zrotation Yrotation Xrotation
			JOINT LeftLeg
			{
				OFFSET 2.56112 -7.03663 0.00000
				CHANNELS 3 Zrotation Yrotation Xrotation
				JOINT LeftFoot
				{
					OFFSET 2.59983 -7.14299 0.00000
					CHANNELS 3 Zrotation Yrotation Xrotation
					JOINT LeftToeBase
					{
						OFFSET 0.13742 -0.37757 2.00054
						CHANNELS 3 Zrotation Yrotation Xrotation
						End Site
						{
							OFFSET 0.00000 -0.00000 1.02897
						}
					}
				}
			}
		}
	}
	JOINT RHipJoint
	{
		OFFSET 0 0 0
		CHANNELS 3 Zrotation Yrotation Xrotation
		JOINT RightUpLeg
		{
			OFFSET -1.40122 -1.83435 0.76627
			CHANNELS 3 Zrotation Yrotation Xrotation
			JOINT RightLeg
			{
				OFFSET -2.54052 -6.98003 0.00000
				CHANNELS 3 Zrotation Yrotation Xrotation
				JOINT RightFoot
				{
					OFFSET -2.63179 -7.23079 0.00000
					CHANNELS 3 Zrotation Yrotation Xrotation
					JOINT RightToeBase
					{
						OFFSET -0.24131 -0.66299 2.03908
						CHANNELS 3 Zrotation Yrotation Xrotation
						End Site
						{
							OFFSET -0.00000 -0.00000 1.07391
						}
					}
				}
			}
		}
	}
	JOINT LowerBack
	{
		OFFSET 0 0 0
		CHANNELS 3 Zrotation Yrotation Xrotation
		JOINT Spine
		{
			OFFSET 0.01174 2.10302 -0.29778
			CHANNELS 3 Zrotation Yrotation Xrotation
			JOINT Spine1
			{
				OFFSET 0.00772 2.13227 -0.01247
				CHANNELS 3 Zrotation Yrotation Xrotation
				JOINT Neck
				{
					OFFSET 0 0 0
					CHANNELS 3 Zrotation Yrotation Xrotation
					JOINT Neck1
					{
						OFFSET -0.09219 1.60848 0.31481
						CHANNELS 3 Zrotation Yrotation Xrotation
						JOINT Head
						{
							OFFSET 0.13974 1.65456 -0.31134
							CHANNELS 3 Zrotation Yrotation Xrotation
							End Site
							{
								OFFSET 0.04742 1.69515 -0.14578
							}
						}
					}
				}
				JOINT LeftShoulder
				{
					OFFSET 0 0 0
					CHANNELS 3 Zrotation Yrotation Xrotation
					JOINT LeftArm
					{
						OFFSET 3.24909 1.02882 -0.23993
						CHANNELS 3 Zrotation Yrotation Xrotation
						JOINT LeftForeArm
						{
							OFFSET 5.32955 -0.00000 -0.00000
							CHANNELS 3 Zrotation Yrotation Xrotation
							JOINT LeftHand
							{
								OFFSET 3.69232 -0.00000 -0.00000
								CHANNELS 3 Zrotation Yrotation Xrotation
								JOINT LeftFingerBase
								{
									OFFSET 0 0 0
									CHANNELS 3 Zrotation Yrotation Xrotation
									JOINT LeftHandIndex1
									{
										OFFSET 0.53660 -0.00000 -0.00000
										CHANNELS 3 Zrotation Yrotation Xrotation
										End Site
										{
											OFFSET 0.43262 -0.00000 -0.00000
										}
									}
								}
								JOINT LThumb
								{
									OFFSET 0 0 0
									CHANNELS 3 Zrotation Yrotation Xrotation
									End Site
									{
										OFFSET 0.43922 -0.00000 0.43922
									}
								}
							}
						}
					}
				}
				JOINT RightShoulder
				{
					OFFSET 0 0 0
					CHANNELS 3 Zrotation Yrotation Xrotation
					JOINT RightArm
					{
						OFFSET -3.21387 0.93002 -0.34594
						CHANNELS 3 Zrotation Yrotation Xrotation
						JOINT RightForeArm
						{
							OFFSET -5.23431 -0.00000 0.00000
							CHANNELS 3 Zrotation Yrotation Xrotation
							JOINT RightHand
							{
								OFFSET -3.55301 -0.00000 -0.00000
								CHANNELS 3 Zrotation Yrotation Xrotation
								JOINT RightFingerBase
								{
									OFFSET 0 0 0
									CHANNELS 3 Zrotation Yrotation Xrotation
									JOINT RightHandIndex1
									{
										OFFSET -0.77252 -0.00000 -0.00000
										CHANNELS 3 Zrotation Yrotation Xrotation
										End Site
										{
											OFFSET -0.62283 -0.00000 -0.00000
										}
									}
								}
								JOINT RThumb
								{
									OFFSET 0 0 0
									CHANNELS 3 Zrotation Yrotation Xrotation
									End Site
									{
										OFFSET -0.63234 -0.00000 0.63234
									}
								}
							}
						}
					}
				}
			}
		}
	}
}
MOTION
Frames: 6
Frame Time: .0083333
-12.4132 17.7654 7.4333 23.9869 83.4298 -696.4120 0.0000 0.0000 0.0000 -20.8636 -5.4758 -4.3785 1.5681 7.9017 22.4160 0.0715 -12.4578 -9.6680 0.0398 -1.2880 -3.5415 0.0000 0.0000 0.0000 9.6513 -3.2172 -11.1183 -4.4575 -12.7456 38.4233 -1.4091 -0.8218 -22.7529 -0.0002 -0.0929 0.2553 -1.5355 3.4155 11.8531 -0.4264 4.3237 0.0278 -0.3425 2.1662 -6.6960 -9.8277 -3.0092 -19.4416 5.7171 -1.9436 35.0694 3.9298 -0.9737 15.9036 0.0000 0.0000 0.0000 -82.2420 2.6994 22.3797 20.6891 -31.4637 -5.8868 -0.0000 -0.0000 3.3531 25.4609 22.8663 10.4823 -7.1250 0.0000 -0.0000 -3.8441 54.9755 -0.9428 0.0000 0.0000 0.0000 88.4705 -4.9865 7.6079 -19.9914 30.6319 -5.5269 0.0000 0.0000 5.9200 -17.2812 10.5940 -3.2735 7.1250 -0.0000 -0.0000 6.9070 -18.9411 4.3224
-12.4172 17.7680 7.3784 22.9277 82.9070 -697.4870 0.0000 0.0000 0.0000 -21.1678 -5.4281 -4.2761 1.5603 7.8829 22.3591 0.0801 -12.2032 -9.6162 0.0071 -0.5437 -1.4940 0.0000 0.0000 0.0000 10.1266 -4.0363 -11.7612 -4.6896 -13.0255 39.4640 -1.4601 -0.2696 -22.9574 -0.0001 -0.0734 0.2017 -1.6350 3.4672 11.8051 -0.5537 4.3722 0.0402 -0.4255 2.1915 -6.6538 -9.7326 -2.9604 -19.4890 5.6870 -1.8941 35.0897 3.9099 -0.9464 15.9165 -0.0000 -0.0000 0.0000 -82.1269 2.6053 21.8062 20.6118 -31.3724 -5.8465 -0.0000 -0.0000 3.4899 25.9294 22.8473 10.6907 -7.1250 0.0000 -0.0000 -3.3410 55.0516 -0.8253 -0.0000 -0.0000 0.0000 88.7290 -4.9170 7.8576 -20.0182 30.6643 -5.5407 0.0000 0.0000 6.3333 -17.1593 10.6249 -3.2584 7.1250 -0.0000 -0.0000 6.9930 -18.9172 4.3808
-12.4190 17.7685 7.3288 21.3495 82.3688 -699.0830 0.0000 0.0000 0.0000 -21.3697 -5.0600 -4.3300 1.5609 7.8844 22.3636 0.1089 -11.9495 -9.8250 0.0124 -0.7183 -1.9739 0.0000 0.0000 0.0000 10.7081 -4.8281 -12.3501 -4.9005 -13.2708 40.3909 -1.4873 0.2173 -23.0068 -0.0029 0.3485 -0.9576 -1.6903 3.5577 11.7679 -0.6519 4.4795 0.0301 -0.5145 2.2444 -6.6411 -9.6978 -2.9497 -19.4725 5.6850 -1.8987 35.0499 3.8992 -0.9453 15.8922 0.0000 0.0000 0.0000 -82.0172 2.5910 21.3952 20.5599 -31.3110 -5.8195 -0.0000 -0.0000 3.6204 26.2987 22.8770 10.8753 -7.1250 0.0000 -0.0000 -2.9569 55.1598 -0.7381 0.0000 0.0000 0.0000 88.9381 -4.9158 8.1275 -20.0613 30.7161 -5.5626 0.0000 0.0000 6.4224 -17.1670 10.6809 -3.2769 7.1250 -0.0000 -0.0000 6.9874 -18.8587 4.3864
-12.4200 17.7734 7.2839 19.1283 81.8883 -701.3450 0.0000 0.0000 0.0000 -21.3869 -4.7152 -4.3706 1.5692 7.9042 22.4236 0.1269 -11.7755 -9.9496 0.0099 -0.6415 -1.7630 0.0000 0.0000 0.0000 11.4911 -5.5309 -12.8173 -5.0887 -13.4829 41.2043 -1.5003 0.5190 -23.0121 -0.0304 1.1254 -3.0940 -1.7747 3.4970 11.7053 -0.5267 4.3970 0.0692 -0.3160 2.2088 -6.5800 -9.9491 -2.8116 -19.5639 5.6093 -1.5667 35.0168 3.9702 -0.8552 15.8655 -0.0000 0.0000 0.0000 -82.2506 2.6262 20.4523 20.5340 -31.2803 -5.8061 -0.0000 -0.0000 3.6802 26.3804 23.0757 11.0009 -7.1250 0.0000 -0.0000 -2.9307 55.3896 -0.7479 -0.0000 0.0000 0.0000 88.7761 -4.8493 8.7622 -20.1565 30.8304 -5.6113 0.0000 0.0000 6.1984 -16.5092 10.9650 -3.2267 7.1250 -0.0000 -0.0000 7.4501 -18.6095 4.7231
-12.4203 17.7763 7.2504 16.4764 81.3941 -703.9460 0.0000 0.0000 0.0000 -21.2321 -4.3152 -4.5514 1.5853 7.9429 22.5407 0.1350 -11.7414 -10.0317 0.0036 -0.3886 -1.0678 0.0000 0.0000 0.0000 12.4613 -6.1207 -13.2425 -5.2541 -13.6643 41.9091 -1.5254 0.8468 -23.1066 -0.0494 1.4347 -3.9458 -1.9820 3.3045 11.4888 -0.2161 4.1374 0.1068 0.1850 2.0931 -6.4533 -10.4911 -2.5449 -19.7853 5.5904 -0.9307 35.1023 4.1817 -0.6717 15.8983 -0.0000 0.0000 0.0000 -82.7158 2.7814 19.1612 20.5464 -31.2950 -5.8125 -0.0000 -0.0000 3.5042 26.2523 23.1385 10.9681 -7.1250 0.0000 -0.0000 -3.0873 55.4299 -0.7910 -0.0000 0.0000 0.0000 88.2021 -4.7088 10.0243 -20.2114 30.8962 -5.6395 0.0000 0.0000 5.6587 -15.4301 11.1934 -3.0670 7.1250 -0.0000 -0.0000 8.2063 -18.4462 5.2421
-12.4190 17.7736 7.2232 14.4506 80.8557 -705.9190 0.0000 0.0000 0.0000 -21.1561 -3.9901 -4.7383 1.6147 8.0125 22.7521 0.1740 -11.5151 -10.3903 0.0101 -0.6487 -1.7827 0.0000 0.0000 0.0000 13.3613 -6.9134 -13.6484 -5.3968 -13.8172 42.5100 -1.5417 1.3362 -23.0921 -0.0736 1.7498 -4.8148 -2.2040 3.2779 11.2534 -0.0721 4.0874 0.1234 0.4825 2.0776 -6.3289 -10.7027 -2.4009 -19.9060 5.6247 -0.6358 35.1449 4.2921 -0.5760 15.9166 -0.0000 0.0000 0.0000 -82.8239 2.8484 18.5323 20.5299 -31.2755 -5.8039 -0.0000 -0.0000 3.1236 25.9107 23.0094 10.7520 -7.1250 0.0000 -0.0000 -3.4117 55.2207 -0.8568 -0.0000 0.0000 0.0000 87.9812 -4.6615 11.0631 -20.2832 30.9820 -5.6764 0.0000 0.0000 5.0413 -15.3869 11.1929 -3.0578 7.1250 -0.0000 -0.0000 8.2367 -18.4496 5.2613
